<svg xmlns="http://www.w3.org/2000/svg" width="512.003" height="480.497" viewBox="0 0 512.003 480.497">
  <g id="cloud-computing" transform="translate(0.001 0)">
    <path id="Path_1" data-name="Path 1" d="M413.492,128.91a160.192,160.192,0,0,0-314.184-.1,112.134,112.134,0,0,0,12.914,223.531h80.094a16.02,16.02,0,1,0,0-32.039H112.223a80.1,80.1,0,1,1,.945-160.191,16.02,16.02,0,0,0,15.922-14.258,128.152,128.152,0,0,1,254.605,0,16.978,16.978,0,0,0,16.867,14.258,80.1,80.1,0,1,1,0,160.191H320.468a16.02,16.02,0,0,0,0,32.039h80.1A112.133,112.133,0,0,0,413.492,128.91Zm0,0" fill="#fff"/>
    <path id="Path_2" data-name="Path 2" d="M313.02,385.184l-40.609,40.621V224.192a16.018,16.018,0,1,0-32.035,0V425.805l-40.609-40.621a16.019,16.019,0,0,0-23.047,22.254c.133.137.262.266.395.395l67.938,67.953a16.077,16.077,0,0,0,5.176,3.461,15.831,15.831,0,0,0,12.336,0,16.018,16.018,0,0,0,5.172-3.461l67.938-67.953a16.019,16.019,0,1,0-22.258-23.043c-.133.129-.266.258-.395.395Zm0,0" fill="#fff"/>
  </g>
</svg>
